<?xml version="1.0" standalone="no"?>
<!DOCTYPE svg PUBLIC "-//W3C//DTD SVG 20010904//EN"
 "http://www.w3.org/TR/2001/REC-SVG-20010904/DTD/svg10.dtd">
<svg version="1.0" xmlns="http://www.w3.org/2000/svg"
 width="700.000000pt" height="700.000000pt" viewBox="0 0 700.000000 700.000000"
 preserveAspectRatio="xMidYMid meet">
<metadata>
Created by potrace 1.11, written by Peter Selinger 2001-2013
</metadata>
<g transform="translate(0.000000,700.000000) scale(0.100000,-0.100000)"
fill="#000000" stroke="none">
<path d="M1678 6994 c-2 -1 -28 -5 -58 -7 -124 -12 -254 -39 -380 -80 -100
-33 -298 -128 -349 -168 -185 -146 -259 -222 -357 -371 -77 -116 -156 -280
-175 -358 -16 -71 -16 -220 1 -290 48 -207 149 -356 296 -441 30 -17 56 -35
59 -40 4 -5 -19 -60 -49 -122 -62 -125 -120 -293 -133 -383 -4 -32 -8 -138 -8
-234 0 -197 17 -293 80 -441 189 -448 574 -737 1085 -813 170 -26 798 -26
1050 -1 19 1 69 6 110 9 82 7 119 11 225 22 39 4 79 8 90 9 48 5 152 17 175
20 25 3 106 13 170 20 69 8 145 17 170 20 14 2 95 11 180 20 85 9 169 18 185
20 160 23 727 23 845 0 10 -2 40 -7 67 -10 511 -71 1003 -388 1265 -815 90
-147 91 -151 93 -290 3 -219 -24 -370 -90 -501 -43 -86 -74 -129 -142 -195
-171 -168 -416 -242 -648 -196 -272 54 -483 304 -483 573 0 220 125 390 339
460 164 53 350 -27 428 -185 30 -60 39 -164 19 -219 l-14 -38 -29 27 c-73 68
-166 79 -249 30 -144 -85 -142 -260 4 -361 62 -43 124 -56 185 -38 105 31 219
123 279 226 64 108 74 302 24 425 -57 139 -160 248 -293 312 -267 127 -576 42
-773 -212 -172 -224 -195 -481 -67 -753 82 -173 225 -317 400 -400 143 -67
187 -78 339 -79 194 -1 277 16 430 89 167 80 325 218 401 348 23 40 41 62 43
53 5 -26 -28 -174 -64 -285 -82 -252 -245 -506 -446 -696 -107 -101 -123 -114
-233 -187 -147 -98 -287 -162 -447 -204 -106 -28 -117 -29 -308 -29 -231 0
-286 7 -435 56 -168 56 -317 136 -435 234 -25 20 -99 90 -165 155 -66 64 -130
123 -143 129 -32 17 -89 4 -112 -27 -58 -73 -30 -132 145 -305 166 -165 307
-260 535 -360 156 -68 378 -110 590 -111 178 -1 296 14 435 57 39 11 72 21 75
22 3 0 10 3 15 6 6 4 28 12 50 19 57 18 249 119 326 170 173 117 402 348 535
540 47 68 137 228 163 290 13 30 29 69 36 85 19 43 65 188 71 221 2 16 7 35
10 43 2 8 7 30 10 50 3 20 7 47 10 61 3 14 8 54 11 90 33 352 -51 712 -234
1010 -177 287 -491 573 -798 727 -83 41 -256 110 -296 118 -12 3 -43 11 -68
19 -66 21 -233 55 -341 70 -215 30 -644 29 -925 -1 -79 -9 -340 -9 -435 -1
-168 15 -298 99 -361 233 -90 190 -20 401 160 483 119 55 255 14 322 -95 33
-53 36 -160 5 -205 -40 -60 -146 -100 -174 -65 -6 7 -13 35 -16 62 -7 71 -12
80 -60 105 -58 31 -101 22 -162 -34 -43 -39 -48 -47 -47 -85 2 -90 92 -209
193 -254 56 -25 165 -30 238 -11 109 28 225 139 256 245 16 55 14 220 -4 274
-14 44 -65 127 -98 162 -66 68 -176 127 -260 139 -435 62 -749 -400 -554 -816
31 -67 61 -108 129 -180 28 -30 51 -55 50 -56 -1 -1 -40 -5 -87 -9 -47 -3
-105 -8 -130 -10 -25 -2 -88 -7 -140 -10 -52 -4 -114 -8 -136 -10 -207 -17
-728 -25 -859 -12 -323 30 -573 136 -755 319 -126 126 -219 276 -274 439 -32
96 -36 117 -43 224 l-5 90 55 -88 c60 -93 115 -157 222 -256 82 -76 359 -199
515 -230 104 -20 115 -21 205 -21 282 -1 512 119 811 423 141 143 231 251 404
484 77 103 143 193 148 198 4 6 33 45 65 87 190 258 505 518 877 726 209 116
288 164 307 184 87 93 28 151 -347 338 -250 125 -410 198 -605 275 -66 26
-129 51 -140 56 -76 34 -547 179 -635 195 -14 3 -50 11 -80 19 -30 7 -109 23
-175 34 -219 37 -285 43 -502 46 -101 1 -184 1 -185 -1z m412 -229 c25 -3 49
-11 54 -16 6 -5 -61 -149 -175 -375 -101 -202 -191 -379 -200 -393 -14 -22
-40 -35 -148 -71 -72 -23 -133 -41 -136 -39 -2 3 7 56 21 119 13 63 26 124 28
135 33 155 148 631 153 636 5 4 26 9 48 11 62 5 305 1 355 -7z m-677 -182
c-123 -530 -194 -827 -203 -843 -9 -17 -211 -170 -225 -170 -3 0 -3 26 0 58 3
31 8 82 11 112 3 30 7 73 9 95 6 61 14 143 20 210 3 33 8 76 10 95 2 19 7 64
10 100 3 36 8 81 10 100 3 19 7 64 10 100 7 80 15 142 21 151 10 17 239 114
294 125 13 3 27 7 29 10 2 2 12 4 21 4 15 0 13 -16 -17 -147z m1190 86 c70
-17 127 -33 127 -36 0 -8 -131 -179 -282 -369 -133 -168 -144 -177 -245 -199
-98 -21 -134 -27 -139 -22 -6 5 240 493 304 605 43 73 21 72 235 21z m449
-135 c40 -14 82 -29 93 -34 11 -5 37 -15 59 -22 48 -16 55 -33 25 -59 -13 -11
-42 -37 -63 -57 -95 -88 -222 -192 -236 -193 -8 0 -24 -2 -35 -4 -11 -2 -42
-6 -70 -9 -187 -20 -187 -20 -165 7 6 7 41 53 78 102 74 100 231 295 237 295
2 0 37 -12 77 -26z m-2226 -211 c-3 -32 -8 -89 -12 -128 -3 -38 -7 -86 -9
-105 -2 -19 -6 -73 -10 -120 -4 -47 -9 -98 -11 -115 -2 -16 -6 -55 -9 -85 -4
-30 -8 -66 -11 -80 -2 -13 -6 -58 -10 -100 -8 -104 -13 -109 -58 -70 -41 37
-97 147 -117 230 -31 135 -11 227 88 410 37 69 147 220 159 220 3 0 3 -26 0
-57z m2757 1 c98 -41 207 -97 207 -106 0 -4 -37 -8 -82 -9 -147 -1 -343 -9
-355 -14 -7 -2 -13 -1 -13 4 0 14 156 151 173 151 4 0 36 -12 70 -26z m98
-434 c-83 -55 -155 -100 -159 -100 -12 0 -188 180 -177 180 6 1 69 3 140 7 72
3 131 6 132 7 1 0 50 2 109 4 l107 2 -152 -100z m-626 25 c35 -27 75 -63 199
-183 l89 -85 -96 -94 c-54 -52 -101 -93 -106 -91 -15 6 -227 198 -393 357 -60
57 -84 87 -76 92 14 7 83 16 203 25 44 4 81 7 82 8 10 9 73 -10 98 -29z m-663
-82 c96 -79 325 -286 493 -445 33 -31 72 -67 86 -81 22 -20 25 -27 15 -43 -24
-44 -158 -224 -166 -224 -13 0 -166 147 -480 459 l-295 293 60 20 c33 10 76
21 95 24 19 3 51 9 70 14 62 14 87 11 122 -17z m-556 -165 c158 -142 805 -783
822 -815 9 -16 7 -25 -11 -48 -38 -48 -87 -108 -130 -159 -23 -27 -48 -57 -54
-65 -14 -18 6 -37 -253 239 -150 158 -168 179 -303 324 -56 60 -131 142 -168
181 -36 38 -90 97 -120 130 -29 33 -61 67 -69 75 -8 9 -28 30 -44 48 l-29 32
79 36 c96 45 172 72 200 73 13 1 46 -21 80 -51z m-478 -270 c149 -156 338
-355 482 -508 80 -86 285 -304 366 -389 l82 -86 -27 -26 c-53 -52 -222 -169
-244 -169 -7 0 -44 37 -132 132 -33 35 -119 127 -191 204 -72 76 -177 190
-234 253 -57 63 -110 121 -119 130 -9 9 -50 54 -91 100 -41 46 -103 113 -137
150 -34 36 -63 69 -63 73 0 11 48 58 125 124 39 32 76 67 83 77 7 9 15 17 17
17 2 0 40 -37 83 -82z m-143 -652 c61 -66 119 -129 130 -140 11 -12 63 -69
115 -126 52 -58 114 -125 136 -150 71 -77 149 -172 146 -178 -4 -10 -91 -2
-167 14 -320 69 -572 271 -647 519 -16 55 -20 95 -20 186 1 63 6 128 12 144
l11 30 87 -90 c48 -50 137 -144 197 -209z"/>
</g>
</svg>
