<?xml version="1.0" standalone="no"?>
<!DOCTYPE svg PUBLIC "-//W3C//DTD SVG 20010904//EN"
 "http://www.w3.org/TR/2001/REC-SVG-20010904/DTD/svg10.dtd">
<svg version="1.0" xmlns="http://www.w3.org/2000/svg"
 width="512.000000pt" height="512.000000pt" viewBox="0 0 512.000000 512.000000"
 preserveAspectRatio="xMidYMid meet">
<g transform="translate(0.000000,512.000000) scale(0.100000,-0.100000)"
fill="#450369" stroke="none">
<path d="M1135 5105 c-117 -17 -167 -29 -265 -65 -265 -96 -454 -280 -582
-567 -93 -207 0 -512 187 -609 30 -16 55 -32 55 -37 0 -4 -10 -24 -23 -45 -41
-65 -95 -204 -112 -287 -19 -93 -21 -265 -5 -355 50 -274 248 -534 505 -663
183 -91 358 -122 690 -120 276 0 533 20 930 69 437 54 556 64 765 65 214 0
354 -15 505 -55 341 -91 636 -319 799 -617 36 -65 37 -69 37 -180 2 -215 -51
-369 -164 -483 -105 -104 -237 -159 -382 -159 -160 0 -291 67 -378 195 -154
224 -70 500 173 572 66 20 93 20 156 1 128 -38 212 -182 173 -294 l-11 -32
-28 26 c-108 104 -290 -7 -251 -153 19 -69 121 -139 186 -129 95 15 198 98
243 195 37 80 42 194 12 274 -118 316 -512 386 -749 133 -125 -134 -173 -296
-136 -459 49 -222 215 -402 430 -468 102 -31 263 -31 365 1 186 58 342 178
414 319 10 19 19 32 22 29 2 -2 -2 -37 -10 -78 -83 -432 -440 -825 -851 -934
-85 -23 -121 -27 -240 -28 -151 0 -226 12 -355 59 -156 56 -271 135 -408 280
-76 80 -93 94 -120 94 -36 0 -68 -27 -78 -64 -9 -38 20 -82 125 -187 213 -214
468 -329 771 -346 201 -11 386 28 575 122 139 69 222 131 355 265 300 301 446
696 400 1080 -34 274 -148 506 -353 717 -283 291 -597 429 -1053 463 -150 11
-410 3 -581 -19 -38 -5 -130 -5 -205 -1 -127 6 -141 9 -203 39 -100 50 -163
150 -164 261 -1 131 111 251 235 250 46 -1 109 -34 140 -76 24 -31 29 -47 29
-95 0 -50 -4 -62 -29 -88 -31 -32 -73 -47 -106 -36 -15 5 -20 15 -20 45 0 52
-8 68 -41 85 -45 24 -75 18 -120 -22 -38 -35 -41 -40 -36 -79 6 -57 52 -122
111 -158 38 -24 63 -31 115 -34 107 -6 200 47 259 147 24 41 27 56 27 136 0
80 -3 97 -30 149 -74 147 -248 218 -411 168 -303 -93 -382 -489 -145 -718 l43
-41 -74 -7 c-419 -38 -810 -48 -968 -26 -252 35 -413 116 -553 279 -113 131
-188 314 -187 459 l1 47 32 -60 c37 -68 118 -159 185 -209 124 -90 323 -163
472 -173 212 -13 401 76 615 291 124 124 211 230 370 451 125 174 141 193 244
299 136 140 327 276 571 406 148 78 165 91 176 133 10 44 -48 90 -242 189
-710 363 -1364 529 -1829 463z m357 -153 c42 -4 79 -10 83 -13 3 -4 -61 -136
-142 -294 l-148 -288 -98 -34 c-54 -19 -101 -33 -103 -30 -3 3 29 149 70 326
42 177 76 323 76 325 0 13 152 18 262 8z m-511 -363 c-43 -184 -82 -349 -86
-367 -5 -24 -18 -40 -48 -60 -23 -14 -61 -42 -85 -61 -23 -18 -44 -32 -46 -30
-1 2 14 166 35 364 21 198 38 367 38 376 1 10 25 27 64 44 62 28 200 76 205
71 1 -2 -33 -153 -77 -337z m905 294 c63 -15 114 -29 114 -32 0 -6 -280 -364
-303 -388 -7 -7 -53 -21 -104 -31 l-92 -19 125 248 c68 137 129 249 135 249 6
0 63 -12 125 -27z m390 -119 c55 -19 103 -39 107 -43 4 -4 -46 -53 -111 -108
l-119 -101 -107 -12 c-59 -7 -109 -10 -111 -8 -4 4 233 308 239 308 2 0 48
-16 102 -36z m-1696 -416 c-17 -172 -34 -319 -36 -327 -7 -20 -55 28 -87 87
-31 58 -52 167 -42 228 3 26 26 83 49 128 41 81 134 212 143 203 2 -3 -10
-146 -27 -319z m2099 252 c55 -25 101 -48 101 -52 0 -5 -60 -8 -132 -8 -73 0
-150 -3 -170 -6 -21 -4 -38 -3 -37 2 1 11 122 114 130 111 4 -1 52 -22 108
-47z m76 -251 c-27 -17 -79 -51 -115 -75 l-64 -44 -68 67 -69 68 63 6 c35 3
117 6 183 7 l120 2 -50 -31z m-425 -108 l115 -109 -70 -71 c-38 -39 -73 -70
-77 -69 -11 4 -356 322 -357 329 -1 6 156 25 234 27 38 2 46 -4 155 -107z
m-437 -98 c88 -82 192 -178 231 -214 l70 -66 -63 -89 c-36 -49 -66 -91 -67
-93 -2 -2 -132 122 -289 274 -157 153 -282 281 -279 284 6 7 189 49 218 50 10
1 86 -61 179 -146z m-259 -276 c267 -261 324 -322 316 -335 -5 -9 -43 -57 -84
-105 l-75 -88 -353 376 c-194 207 -354 380 -356 385 -4 12 191 91 215 87 7 -1
158 -145 337 -320z m-393 -179 c166 -178 332 -354 368 -391 l66 -68 -40 -36
c-54 -48 -156 -114 -166 -107 -11 6 -693 745 -702 761 -4 7 22 35 70 73 43 35
82 69 86 76 4 8 10 14 12 14 2 0 140 -145 306 -322z m-222 -357 c144 -157 261
-289 261 -294 0 -13 -113 2 -190 25 -225 69 -384 218 -421 396 -11 57 -8 200
6 222 9 15 17 7 344 -349z"/>
</g>
</svg>
